<svg xmlns="http://www.w3.org/2000/svg" version="1.1" viewBox="0 0 512 218.4"><g><path d="M511.9,148.5l-2-5.3c-0.1-0.3-0.5-0.5-0.8-0.5l-205.7,14.5c1.5-6,2.4-11.8,2.4-17.2l110.6-14.1l0.4-0.1c0.4-0.1,0.8-0.5,0.7-0.9l-0.5-5.2c0-0.4-0.4-0.8-0.9-0.8l-112.1,6.9c-5.3-21.2-22.5-37.1-43.9-40.8l-5.5-83.8l0-0.4c0-0.4-0.4-0.8-0.8-0.8h-5.2c-0.4,0-0.8,0.3-0.8,0.8L241.2,85c-21.5,3.7-38.6,19.6-43.9,40.8L85,118.9l-0.4,0c-0.4,0-0.8,0.3-0.9,0.8l-0.5,5.2c0,0.4,0.3,0.8,0.7,0.9L195.6,140c0.1,5.1,0.9,10.8,2.3,16.7L3.1,137.3c-0.4,0-0.7,0.2-0.8,0.5l-2.2,5.3c-0.1,0.2-0.1,0.5,0,0.7c0.1,0.2,0.3,0.4,0.6,0.4l82.1,20.5v9.5c-9.5,2.1-16.4,10.6-16.4,20.4c0,11.6,9.4,20.9,20.9,20.9c11.6,0,20.9-9.4,20.9-20.9c0-9.8-6.8-18.3-16.4-20.4v-8l118.5,19.3c0,0,4.5,6.5,6.1,8.4c9.3,11.1,19.8,17.6,30.6,18.8c2.5,0.3,4.2,0.3,6.9,0c14.2-1.5,25.1-11.7,31.8-20.1c1.7-2.1,3.3-4.4,5-6.9L406,169.2v7.9c-9.5,2.1-16.4,10.6-16.4,20.4c0,11.6,9.4,20.9,20.9,20.9c11.6,0,20.9-9.4,20.9-20.9c0-9.8-6.8-18.3-16.4-20.4v-9.2l96.1-18.2c0.2,0,0.5-0.2,0.6-0.4C512,149,512,148.7,511.9,148.5z M98.7,194.7c0,6.2-5.1,11.3-11.3,11.3c-6.2,0-11.3-5.1-11.3-11.3c0-6.2,5.1-11.3,11.3-11.3C93.6,183.4,98.7,188.4,98.7,194.7z M284.7,123.1c0,5.2-4.2,9.4-9.4,9.4h-46.8c-5.2,0-9.4-4.2-9.4-9.4v-1.2c0-5.2,4.2-9.4,9.4-9.4h46.8c5.2,0,9.4,4.2,9.4,9.4V123.1z M421.9,197.5c0,6.2-5.1,11.3-11.3,11.3c-6.2,0-11.3-5.1-11.3-11.3c0-6.2,5.1-11.3,11.3-11.3C416.8,186.2,421.9,191.3,421.9,197.5z"/></g></svg>
