<svg xmlns="http://www.w3.org/2000/svg" viewBox="0 0 512 218.4"><path d="M511.9 148.5l-2-5.3c-.1-.3-.5-.5-.8-.5l-205.7 14.5c1.5-6 2.4-11.8 2.4-17.2l110.6-14.1.4-.1c.4-.1.8-.5.7-.9l-.5-5.2c0-.4-.4-.8-.9-.8L304 125.8c-5.3-21.2-22.5-37.1-43.9-40.8l-5.5-83.8V.8c0-.4-.4-.8-.8-.8h-5.2c-.4 0-.8.3-.8.8L241.2 85c-21.5 3.7-38.6 19.6-43.9 40.8L85 118.9h-.4c-.4 0-.8.3-.9.8l-.5 5.2c0 .4.3.8.7.9L195.6 140c.1 5.1.9 10.8 2.3 16.7L3.1 137.3c-.4 0-.7.2-.8.5l-2.2 5.3c-.1.2-.1.5 0 .7.1.2.3.4.6.4l82.1 20.5v9.5c-9.5 2.1-16.4 10.6-16.4 20.4 0 11.6 9.4 20.9 20.9 20.9 11.6 0 20.9-9.4 20.9-20.9 0-9.8-6.8-18.3-16.4-20.4v-8l118.5 19.3s4.5 6.5 6.1 8.4c9.3 11.1 19.8 17.6 30.6 18.8 2.5.3 4.2.3 6.9 0 14.2-1.5 25.1-11.7 31.8-20.1 1.7-2.1 3.3-4.4 5-6.9L406 169.2v7.9c-9.5 2.1-16.4 10.6-16.4 20.4 0 11.6 9.4 20.9 20.9 20.9 11.6 0 20.9-9.4 20.9-20.9 0-9.8-6.8-18.3-16.4-20.4v-9.2l96.1-18.2c.2 0 .5-.2.6-.4.3-.3.3-.6.2-.8zM98.7 194.7c0 6.2-5.1 11.3-11.3 11.3-6.2 0-11.3-5.1-11.3-11.3 0-6.2 5.1-11.3 11.3-11.3 6.2 0 11.3 5 11.3 11.3zm186-71.6c0 5.2-4.2 9.4-9.4 9.4h-46.8c-5.2 0-9.4-4.2-9.4-9.4v-1.2c0-5.2 4.2-9.4 9.4-9.4h46.8c5.2 0 9.4 4.2 9.4 9.4v1.2zm137.2 74.4c0 6.2-5.1 11.3-11.3 11.3-6.2 0-11.3-5.1-11.3-11.3 0-6.2 5.1-11.3 11.3-11.3 6.2 0 11.3 5.1 11.3 11.3z"/></svg>